<svg width="24" height="24" viewBox="0 0 24 24" fill="none" xmlns="http://www.w3.org/2000/svg">
<path fill-rule="evenodd" clip-rule="evenodd" d="M5.18085 21.804L4.30713 22.199C2.21478 23.1448 1.14077 23.3655 1.08476 22.861C1.01979 22.2748 0.992238 20.111 1.00187 16.3699C1.01386 13.8876 1.03324 11.4163 1.06012 8.95587C1.11165 8.63192 1.51782 8.298 2.27863 7.95411C3.02757 7.61549 3.50397 7.52184 3.70795 7.67307C3.76463 7.73333 3.81034 7.92029 3.84506 8.23382C3.98407 9.48817 4.01734 12.716 3.94476 17.9173C3.93389 18.4948 3.93042 19.0262 3.93423 19.5113L7.11705 17.9865C7.42913 17.8741 7.65719 17.9607 7.80124 18.2464C7.9453 18.532 8.03009 18.7908 8.05586 19.0225C8.14805 19.8541 7.90508 20.4222 7.32719 20.7264L6.74101 21.0128C6.17488 21.3117 5.65479 21.5754 5.18085 21.804Z" fill="#7A7A7A"/>
<path fill-rule="evenodd" clip-rule="evenodd" d="M11.2858 19.1088C9.8755 19.6747 8.92516 19.4635 8.43486 18.4754C7.94457 17.4872 7.62992 16.3661 7.4909 15.1117C7.42739 14.5391 7.38908 13.9121 7.37598 13.2308C7.31426 11.0968 7.54512 9.18135 8.06857 7.48442C8.59202 5.78738 9.55502 4.62185 10.9578 3.98773L10.9935 3.9716C12.4068 3.43291 13.3605 3.64608 13.8544 4.6111C14.3484 5.57611 14.6627 6.66536 14.7972 7.87883C14.8637 8.47867 14.8983 9.12881 14.901 9.82914C15.0437 14.8329 13.8386 17.9261 11.2858 19.1088ZM11.2002 16.1408C11.8837 15.7747 12.1914 14.0462 12.1235 10.9558C12.1117 10.1737 12.071 9.46916 12.0016 8.84198C11.9607 8.47389 11.8829 7.99715 11.7681 7.41198C11.6533 6.8267 11.4011 6.57925 11.0117 6.66943C10.6313 6.84137 10.3717 7.42755 10.2329 8.42808C10.0941 9.42861 10.0378 10.5529 10.0638 11.8011C10.0771 12.5968 10.1185 13.3083 10.188 13.9355C10.2304 14.3172 10.3122 14.8027 10.4338 15.3921C10.5553 15.9814 10.8107 16.231 11.2002 16.1408Z" fill="#7A7A7A"/>
<path fill-rule="evenodd" clip-rule="evenodd" d="M20.1061 15.0572L19.2323 15.4522C17.1401 16.3979 16.066 16.6186 16.0101 16.1142C15.9451 15.5279 15.9175 13.3642 15.9272 9.62309C15.9392 7.14082 15.9586 4.66941 15.9854 2.20909C16.0369 1.88514 16.443 1.55122 17.2038 1.20722C17.9528 0.868704 18.4293 0.775059 18.6333 0.926168C18.6898 0.986545 18.7356 1.17339 18.7704 1.48703C18.9094 2.74139 18.9427 5.96913 18.8701 11.1705C18.8592 11.748 18.8556 12.2793 18.8596 12.7645L22.0424 11.2397C22.3545 11.1272 22.5825 11.2138 22.7265 11.4995C22.8705 11.7852 22.9554 12.0439 22.9811 12.2757C23.0733 13.1074 22.8304 13.6753 22.2524 13.9795L21.6662 14.266C21.1001 14.5649 20.5801 14.8286 20.1061 15.0572Z" fill="#7A7A7A"/>
</svg>
