<svg width="21" height="22" viewBox="0 0 21 22" fill="none" xmlns="http://www.w3.org/2000/svg">
  <path fill-rule="evenodd" clip-rule="evenodd" d="M17.4479 16.8778C17.6373 16.8607 17.7984 16.7924 17.931 16.6729C18.0636 16.5534 18.1299 16.3997 18.1299 16.2119C18.2246 15.1874 18.452 13.6209 18.8119 11.5122C19.1719 9.40357 19.5602 7.35041 19.977 5.35274C20.3938 3.35506 20.7253 1.99767 20.9716 1.28056C20.9905 1.21226 21 1.14397 21 1.07567C21 0.922002 20.9337 0.768335 20.8011 0.614668C20.4222 0.239038 20.0765 0.0426853 19.7639 0.0256112C19.4513 0.00853706 19.2476 0 19.1529 0C18.7361 0 18.3288 0.0512224 17.931 0.153667C17.4384 0.29026 17.0501 0.426853 16.7659 0.563446C16.5007 0.665891 16.3491 0.845169 16.3112 1.10128C16.1786 1.95499 15.9465 3.49166 15.615 5.71129C15.2835 7.93093 15.023 9.87311 14.8336 11.5378C14.6441 13.2026 14.5494 14.3679 14.5494 15.0338C14.5494 15.4777 14.5778 15.7936 14.6346 15.9814C14.862 16.3399 15.2503 16.579 15.7997 16.6985C16.3491 16.818 16.8038 16.8778 17.1637 16.8778H17.4479ZM6.37957 16.3399C6.19959 16.5448 5.977 16.6558 5.71177 16.6729C5.33288 16.6729 4.94926 16.6259 4.56089 16.532C4.17253 16.4381 3.94046 16.246 3.86468 15.9558C3.80785 15.6997 3.77943 15.3326 3.77943 14.8545C3.77943 14.6325 3.79364 14.2355 3.82206 13.6636C3.85047 13.0916 3.9594 12.3873 4.14885 11.5506C4.33829 10.714 4.63194 10.1164 5.02977 9.75786C5.33288 9.53589 5.67388 9.29686 6.05277 9.04074C7 8.46023 7.83356 7.7858 8.55345 7.01746C9.02706 6.52231 9.26387 5.98448 9.26387 5.40396C9.26387 5.07955 9.18809 4.7466 9.03654 4.40512C8.90392 4.08071 8.70501 3.85021 8.43978 3.71362C8.1935 3.57703 7.83356 3.50873 7.35995 3.50873H7.21786C5.51286 3.5941 4.47091 4.08925 4.09202 4.99418C3.9594 5.31859 3.8931 5.62592 3.8931 5.91618C3.8931 6.47963 4.11096 7.00893 4.54668 7.50407C4.6793 7.65774 4.7456 7.81141 4.7456 7.96508C4.7456 8.0163 4.72192 8.11447 4.67456 8.2596C4.6272 8.40473 4.48038 8.52852 4.2341 8.63097C3.77943 8.78463 3.33424 8.86147 2.89851 8.86147C2.34912 8.86147 1.74763 8.68219 1.09405 8.32363C0.44046 7.96508 0.0757781 7.17113 0 5.94179V5.83935C0 4.98564 0.251015 4.10633 0.753045 3.2014C1.25507 2.29647 2.09337 1.53667 3.26793 0.922002C4.32882 0.375631 5.7023 0.102445 7.38836 0.102445H7.84303C9.37754 0.153667 10.68 0.636011 11.7503 1.54948C12.8207 2.46294 13.4222 3.60264 13.5548 4.96857V5.12224C13.5548 6.18083 13.1759 7.05161 12.4181 7.73457C11.6604 8.41754 10.8078 9.0066 9.86062 9.50175C8.76184 10.0652 8.00406 10.6628 7.58728 11.2945C7.24628 11.9433 6.98106 12.6605 6.79161 13.4459C6.659 13.9752 6.59269 14.4789 6.59269 14.9569C6.59269 15.196 6.61164 15.435 6.64953 15.674V15.7253C6.64953 15.9302 6.55954 16.135 6.37957 16.3399ZM6.91949 21.3469C6.4364 21.7823 5.86333 22 5.20027 22C4.51827 22 3.93572 21.7823 3.45264 21.3469C2.96955 20.9115 2.72801 20.395 2.72801 19.7974C2.72801 19.1828 2.96955 18.6577 3.45264 18.2224C3.93572 17.787 4.51827 17.5693 5.20027 17.5693C5.86333 17.5693 6.4364 17.787 6.91949 18.2224C7.40257 18.6577 7.64411 19.1828 7.64411 19.7974C7.64411 20.395 7.40257 20.9115 6.91949 21.3469ZM17.6894 21.3469C17.2064 21.7823 16.6238 22 15.9418 22C15.2788 22 14.7057 21.7823 14.2226 21.3469C13.7395 20.9115 13.498 20.395 13.498 19.7974C13.498 19.1828 13.7395 18.6577 14.2226 18.2224C14.7057 17.787 15.2788 17.5693 15.9418 17.5693C16.6238 17.5693 17.2064 17.787 17.6894 18.2224C18.1725 18.6577 18.4141 19.1828 18.4141 19.7974C18.4141 20.395 18.1725 20.9115 17.6894 21.3469Z" fill="#7A7A7A"/>
</svg>
