<svg width="18" height="24" viewBox="0 0 18 24" fill="none" xmlns="http://www.w3.org/2000/svg">
<path fill-rule="evenodd" clip-rule="evenodd" d="M0 6.24196C0 7.89746 0.112166 10.2844 0.506018 10.9477C0.89987 11.6111 4.33344 14.8964 5.44364 17.5719C6.55384 20.2473 6.74531 24 8.56861 24C10.3919 24 10.9891 22.5693 10.7957 19.6305C10.6022 16.6916 9.24749 14.8777 10.2002 14.1619C10.8476 13.6756 11.9895 14.471 14.7593 14.471C15.966 14.471 18 14.471 18 12.7935C18 11.116 17.6437 11.3085 17.4811 10.1698C17.3186 9.03105 17.8081 8.47897 17.2673 7.19415C16.7266 5.90933 16.0607 5.75167 15.7512 4.83156C15.4416 3.91145 15.5501 2.92226 14.1022 1.57413C12.6543 0.225996 10.3433 0 8.56861 0C6.79396 0 1.52154 0.616577 0.795376 2.35753C0.069214 4.09849 0 4.7331 0 6.24196Z" fill="#7A7A7A" />
</svg>
