<svg width="18" height="24" viewBox="0 0 18 24" fill="none" xmlns="http://www.w3.org/2000/svg">
<path fill-rule="evenodd" clip-rule="evenodd" d="M0 17.758C0 16.1025 0.112166 13.7156 0.506018 13.0523C0.89987 12.3889 4.33344 9.10359 5.44364 6.42813C6.55384 3.75267 6.74531 -3.53123e-08 8.56861 0C10.3919 3.53123e-08 10.9891 1.43065 10.7957 4.36954C10.6022 7.30842 9.24749 9.12226 10.2002 9.83806C10.8476 10.3244 11.9895 9.52898 14.7593 9.52898C15.966 9.52898 18 9.52898 18 11.2065C18 12.884 17.6437 12.6915 17.4811 13.8302C17.3186 14.969 17.8081 15.521 17.2673 16.8059C16.7266 18.0907 16.0607 18.2483 15.7512 19.1684C15.4416 20.0886 15.5501 21.0777 14.1022 22.4259C12.6543 23.774 10.3433 24 8.56861 24C6.79396 24 1.52154 23.3834 0.795376 21.6425C0.069214 19.9015 0 19.2669 0 17.758Z" fill="#7A7A7A"/>
</svg>
